<svg xmlns="http://www.w3.org/2000/svg" viewBox="0 0 64 64" xml:space="preserve"><path d="M14.277 2.175a4.201 4.201 0 0 0-2.423 2.186l-.281.599-.053 4.533-.053 4.534-3.307.059c-2.252.041-3.443.104-3.733.198-1.552.499-3.06 1.764-3.724 3.125C-.043 18.936 0 17.968 0 33.387c0 12.224.02 14.006.165 14.564.488 1.881 1.775 3.431 3.49 4.203.986.445 1.61.539 3.558.539h1.763l.312-.311c.419-.42.419-.878 0-1.297l-.312-.312H7.543c-.789 0-1.692-.048-2.008-.107-1.367-.255-2.526-1.148-3.157-2.432l-.298-.607v-28.48l.286-.61c.589-1.257 1.833-2.204 3.184-2.423.962-.157 51.938-.157 52.9 0 1.351.219 2.595 1.166 3.184 2.423l.286.61v28.48l-.298.607c-.432.879-1.145 1.622-1.922 2.002-.846.414-1.529.537-2.973.537-1.093 0-1.179.016-1.425.262-.369.369-.364 1.033.01 1.407l.273.273 1.781-.044c1.492-.037 1.883-.082 2.413-.276 1.835-.674 3.214-2.051 3.88-3.874l.288-.788.028-14.075c.028-13.776.024-14.094-.185-14.92-.422-1.669-1.584-3.165-3.057-3.934-1.226-.641-1.309-.653-4.893-.718l-3.307-.059-.053-4.534-.053-4.533-.284-.605a4.21 4.21 0 0 0-1.823-1.913l-.667-.362-17.493-.023c-14.211-.018-17.567.004-17.883.118m35.2 2.091c.27.154.571.448.72.702l.256.437v8.568H13.547V9.695c0-4.218.003-4.285.236-4.699.24-.427.706-.784 1.232-.944.16-.048 7.876-.08 17.145-.07L49.013 4l.464.266M7.42 19.912c-.448.126-1.022.611-1.229 1.04a1.96 1.96 0 0 0-.016 1.715c.273.591.657.911 1.288 1.075.7.182 1.409-.01 1.893-.512.415-.431.564-.807.564-1.428a1.925 1.925 0 0 0-1.789-1.918c-.278-.017-.597-.004-.711.028m6.069.128c-1.96.891-1.333 3.771.821 3.771 1.246 0 2.229-1.27 1.907-2.464-.319-1.184-1.622-1.809-2.728-1.307m6.285.004c-1.005.456-1.44 1.762-.915 2.744.184.343.845.882 1.17.953.16.035.344.079.408.098.065.02.343-.013.62-.072 1.401-.299 2.026-2.09 1.097-3.148-.646-.735-1.547-.953-2.38-.575M11.013 49.04l.027 12.987 20.987.027 20.986.027V36.053H10.986l.027 12.987m39.547-.027v10.614H13.44V38.4h37.12v10.613m-31.028-3.851c-.284.157-.536.55-.542.843-.006.32.284.772.58.908.212.096 3.24.127 12.44.127 13.214 0 12.597.028 12.876-.584.16-.351.16-.508 0-.859-.279-.612.342-.584-12.907-.58-9.915.003-12.24.03-12.447.145m-.17 7.131c-.162.141-.301.4-.337.626-.052.325-.011.441.261.746l.323.362h24.782l.323-.362c.272-.305.313-.421.261-.746a1.142 1.142 0 0 0-.337-.626l-.277-.24H19.639l-.277.24" fill-rule="evenodd"/></svg>